<svg width="227" height="18" viewBox="0 0 227 18" fill="none" xmlns="http://www.w3.org/2000/svg">
<path d="M0.784 7.416C0.784 10.744 3.056 13.096 6.352 13.096C9.632 13.096 11.888 10.744 11.888 7.416C11.888 4.088 9.632 1.736 6.352 1.736C3.056 1.736 0.784 4.088 0.784 7.416ZM11.2 7.416C11.2 10.408 9.328 12.472 6.352 12.472C3.344 12.472 1.472 10.408 1.472 7.416C1.472 4.408 3.344 2.376 6.352 2.376C9.328 2.376 11.2 4.408 11.2 7.416ZM9.6 6.088H8.256C7.984 5.224 7.232 4.76 6.32 4.76C5.104 4.76 4.144 5.656 4.144 7.416C4.144 9.16 5.104 10.056 6.32 10.056C7.312 10.056 7.952 9.576 8.256 8.728H9.6C9.184 10.168 7.936 11.112 6.32 11.112C4.4 11.112 2.848 9.704 2.848 7.4C2.848 5.096 4.4 3.704 6.32 3.704C7.936 3.704 9.184 4.568 9.6 6.088ZM24.1375 5.128C24.1375 6.376 23.4175 7.272 21.7695 7.272H19.6255V3.048H21.7695C23.4335 3.048 24.1375 3.864 24.1375 5.128ZM18.1695 1.848V13H19.6255V8.44H21.3855L24.0415 13H25.7855L22.9855 8.328C24.8575 7.912 25.6415 6.552 25.6415 5.128C25.6415 3.304 24.3935 1.848 21.7695 1.848H18.1695ZM31.6319 5.32C33.1359 5.32 34.4159 6.264 34.3999 7.976H28.8639C29.0239 6.264 30.2079 5.32 31.6319 5.32ZM35.7279 10.296H34.1599C33.8399 11.24 33.0079 11.912 31.6959 11.912C30.2079 11.912 28.9599 10.936 28.8479 9.16H35.8559C35.8879 8.856 35.9039 8.6 35.9039 8.28C35.9039 5.88 34.2399 4.088 31.6959 4.088C29.1359 4.088 27.3599 5.832 27.3599 8.6C27.3599 11.384 29.1999 13.144 31.6959 13.144C33.8719 13.144 35.2799 11.896 35.7279 10.296ZM43.1858 4.232H37.2818V5.416H41.5058L37.2498 11.8V13H43.2178V11.8H38.9138L43.1858 5.416V4.232ZM45.107 13H46.563V4.232H45.107V13ZM45.859 2.808C46.387 2.808 46.819 2.376 46.819 1.816C46.819 1.256 46.387 0.823999 45.859 0.823999C45.299 0.823999 44.867 1.256 44.867 1.816C44.867 2.376 45.299 2.808 45.859 2.808ZM49.0445 13H50.5005V1.16H49.0445V13ZM52.982 13H54.438V1.16H52.982V13ZM56.3755 8.584C56.3755 11.304 58.1835 13.144 60.5195 13.144C62.1355 13.144 63.2715 12.312 63.7995 11.368V13H65.2715V4.232H63.7995V5.832C63.2875 4.92 62.1675 4.088 60.5355 4.088C58.1835 4.088 56.3755 5.848 56.3755 8.584ZM63.7995 8.6C63.7995 10.664 62.4235 11.864 60.8235 11.864C59.2235 11.864 57.8635 10.648 57.8635 8.584C57.8635 6.52 59.2235 5.352 60.8235 5.352C62.4235 5.352 63.7995 6.568 63.7995 8.6ZM71.9816 7.752H80.3976V6.52H71.9816V7.752ZM94.5794 13H96.1154L92.0994 1.912H90.4194L86.3874 13H87.9234L88.8194 10.52H93.6834L94.5794 13ZM93.2674 9.336H89.2354L91.2514 3.704L93.2674 9.336ZM97.8726 13H99.3286V1.16H97.8726V13ZM101.81 13H103.266V1.16H101.81V13ZM111.469 8.232C111.469 6.2 112.525 5.576 113.917 5.576H114.301V4.072C112.909 4.072 111.965 4.68 111.469 5.656V4.232H110.013V13H111.469V8.232ZM115.982 13H117.438V4.232H115.982V13ZM116.734 2.808C117.262 2.808 117.694 2.376 117.694 1.816C117.694 1.256 117.262 0.823999 116.734 0.823999C116.174 0.823999 115.742 1.256 115.742 1.816C115.742 2.376 116.174 2.808 116.734 2.808ZM119.376 8.584C119.376 11.304 121.184 13.144 123.536 13.144C125.136 13.144 126.272 12.296 126.8 11.352V13.192C126.8 15.064 125.632 16.056 124.08 16.056C122.64 16.056 121.6 15.336 121.28 14.28H119.84C120.128 16.152 121.776 17.32 124.08 17.32C126.656 17.32 128.272 15.608 128.272 13.192V4.232H126.8V5.832C126.288 4.888 125.136 4.088 123.536 4.088C121.184 4.088 119.376 5.848 119.376 8.584ZM126.8 8.6C126.8 10.664 125.424 11.864 123.824 11.864C122.224 11.864 120.864 10.648 120.864 8.584C120.864 6.52 122.224 5.352 123.824 5.352C125.424 5.352 126.8 6.568 126.8 8.6ZM130.732 13H132.188V8.152C132.188 6.264 133.212 5.336 134.7 5.336C136.172 5.336 137.148 6.248 137.148 8.04V13H138.588V7.832C138.588 5.32 137.036 4.072 135.084 4.072C133.852 4.072 132.764 4.568 132.188 5.496V1.16H130.732V13ZM141.286 10.6C141.286 12.36 142.166 13 143.718 13H145.03V11.768H143.958C143.062 11.768 142.742 11.464 142.742 10.6V5.432H145.03V4.232H142.742V2.024H141.286V4.232H140.15V5.432H141.286V10.6ZM153.099 10.616C153.035 7.48 147.947 8.616 147.947 6.536C147.947 5.832 148.587 5.32 149.659 5.32C150.827 5.32 151.499 5.96 151.563 6.84H153.019C152.923 5.128 151.643 4.088 149.707 4.088C147.755 4.088 146.491 5.192 146.491 6.536C146.491 9.8 151.675 8.664 151.675 10.616C151.675 11.336 151.035 11.912 149.883 11.912C148.651 11.912 147.899 11.272 147.819 10.424H146.315C146.411 12.024 147.851 13.144 149.899 13.144C151.835 13.144 153.099 12.056 153.099 10.616ZM160.876 8.232C160.876 6.2 161.932 5.576 163.324 5.576H163.708V4.072C162.316 4.072 161.372 4.68 160.876 5.656V4.232H159.42V13H160.876V8.232ZM169.116 5.32C170.62 5.32 171.9 6.264 171.884 7.976H166.348C166.508 6.264 167.692 5.32 169.116 5.32ZM173.212 10.296H171.644C171.324 11.24 170.492 11.912 169.18 11.912C167.692 11.912 166.444 10.936 166.332 9.16H173.34C173.372 8.856 173.388 8.6 173.388 8.28C173.388 5.88 171.724 4.088 169.18 4.088C166.62 4.088 164.844 5.832 164.844 8.6C164.844 11.384 166.684 13.144 169.18 13.144C171.356 13.144 172.764 11.896 173.212 10.296ZM181.614 10.616C181.55 7.48 176.462 8.616 176.462 6.536C176.462 5.832 177.102 5.32 178.174 5.32C179.342 5.32 180.014 5.96 180.078 6.84H181.534C181.438 5.128 180.158 4.088 178.222 4.088C176.27 4.088 175.006 5.192 175.006 6.536C175.006 9.8 180.19 8.664 180.19 10.616C180.19 11.336 179.55 11.912 178.398 11.912C177.166 11.912 176.414 11.272 176.334 10.424H174.83C174.926 12.024 176.366 13.144 178.414 13.144C180.35 13.144 181.614 12.056 181.614 10.616ZM187.398 5.32C188.902 5.32 190.182 6.264 190.166 7.976H184.63C184.789 6.264 185.974 5.32 187.398 5.32ZM191.494 10.296H189.926C189.606 11.24 188.774 11.912 187.462 11.912C185.974 11.912 184.726 10.936 184.614 9.16H191.622C191.654 8.856 191.67 8.6 191.67 8.28C191.67 5.88 190.006 4.088 187.462 4.088C184.902 4.088 183.126 5.832 183.126 8.6C183.126 11.384 184.966 13.144 187.462 13.144C189.638 13.144 191.046 11.896 191.494 10.296ZM195.047 8.232C195.047 6.2 196.103 5.576 197.495 5.576H197.879V4.072C196.487 4.072 195.543 4.68 195.047 5.656V4.232H193.591V13H195.047V8.232ZM198.52 4.232L201.96 13H203.656L207.096 4.232H205.544L202.824 11.656L200.088 4.232H198.52ZM212.257 5.32C213.761 5.32 215.041 6.264 215.025 7.976H209.489C209.649 6.264 210.833 5.32 212.257 5.32ZM216.353 10.296H214.785C214.465 11.24 213.633 11.912 212.321 11.912C210.833 11.912 209.585 10.936 209.473 9.16H216.481C216.513 8.856 216.529 8.6 216.529 8.28C216.529 5.88 214.865 4.088 212.321 4.088C209.761 4.088 207.985 5.832 207.985 8.6C207.985 11.384 209.825 13.144 212.321 13.144C214.497 13.144 215.905 11.896 216.353 10.296ZM217.907 8.584C217.907 11.304 219.715 13.144 222.067 13.144C223.667 13.144 224.803 12.328 225.331 11.352V13H226.803V1.16H225.331V5.8C224.723 4.792 223.459 4.088 222.083 4.088C219.715 4.088 217.907 5.848 217.907 8.584ZM225.331 8.6C225.331 10.664 223.955 11.864 222.355 11.864C220.755 11.864 219.395 10.648 219.395 8.584C219.395 6.52 220.755 5.352 222.355 5.352C223.955 5.352 225.331 6.568 225.331 8.6Z" fill="#AAAAAA"/>
</svg>
